# xmcd CD database file
#
# Track frame offsets:
#	150
#	13382
#	24572
#	36945
#	50497
#	60040
#	72287
#	83670
#	94880
#	105852
#	119040
#	130015
#	147692
#	162402
#	179000
#	191000
#
# Disc length: 2777 seconds
#
# Revision: 3
# Processed by: cddbd v1.5.2PL0 Copyright (c) Steve Scherf et al.
# Submitted via: CDex 1.51
#
DISCID=e20ad710
DTITLE=Booker T. and The MG's - The Very Best Of Booker T. and The MG's
DYEAR=1900
DGENRE=Blues
TTITLE0=Green Onions
TTITLE1=Chinese Checkers
TTITLE2=Groovin'
TTITLE3=Soul Dressing
TTITLE4=Boot-Leg
TTITLE5=My Sweet Potato
TTITLE6=Slim Jenkin's Place
TTITLE7=Booker-Loo
TTITLE8=Hip Hug-Her
TTITLE9=Mo' Onions
TTITLE10=Soul-Limbo
TTITLE11=Hang 'Em High
TTITLE12=Time Is Tight
TTITLE13=Mrs. Robinson
TTITLE14=Slum Baby
TTITLE15=Melting Pot
EXTD=
EXTT0=
EXTT1=
EXTT2=
EXTT3=
EXTT4=
EXTT5=
EXTT6=
EXTT7=
EXTT8=
EXTT9=
EXTT10=
EXTT11=
EXTT12=
EXTT13=
EXTT14=
EXTT15=
PLAYORDER=
